<mxfile host="app.diagrams.net" modified="2023-12-15T20:40:22.561Z" agent="Mozilla/5.0 (Macintosh; Intel Mac OS X 10_15_7) AppleWebKit/605.1.15 (KHTML, like Gecko) Version/15.6.1 Safari/605.1.15" version="22.1.11" etag="Fng0jJNVEQ1tC9hAxO2U" type="github">
  <diagram name="Page-1" id="eKjKgYixJi5TDtqVLOn3">
    <mxGraphModel>
      <root>
        <mxCell id="0" />
        <mxCell id="1" parent="0" />
      </root>
    </mxGraphModel>
  </diagram>
</mxfile>
